<svg width="259" height="36" viewBox="0 0 259 36" fill="none" xmlns="http://www.w3.org/2000/svg">
<path d="M127 27.5C131.142 27.5 134.5 24.1421 134.5 20C134.5 15.8579 131.142 12.5 127 12.5C122.858 12.5 119.5 15.8579 119.5 20C119.5 24.1421 122.858 27.5 127 27.5Z" stroke="black" stroke-width="2" stroke-linecap="round" stroke-linejoin="round"/>
<path d="M122.833 17.0834L125.333 19.5834" stroke="black" stroke-width="2" stroke-linecap="round" stroke-linejoin="round"/>
<path d="M122.833 19.5834L125.333 17.0834" stroke="black" stroke-width="2" stroke-linecap="round" stroke-linejoin="round"/>
<path d="M128.667 17.0834L131.167 19.5834" stroke="black" stroke-width="2" stroke-linecap="round" stroke-linejoin="round"/>
<path d="M128.667 19.5834L131.167 17.0834" stroke="black" stroke-width="2" stroke-linecap="round" stroke-linejoin="round"/>
<path d="M124.917 22.5C125.188 22.7772 125.512 22.9974 125.87 23.1477C126.228 23.298 126.612 23.3754 127 23.3754C127.388 23.3754 127.772 23.298 128.13 23.1477C128.488 22.9974 128.812 22.7772 129.083 22.5" stroke="black" stroke-width="2" stroke-linecap="round" stroke-linejoin="round"/>
<path d="M143.38 32.57H138.73C138.25 32.57 137.9 32.46 137.68 32.24C137.46 32.02 137.35 31.67 137.35 31.19V11.75C137.35 11.49 137.38 11.27 137.44 11.09C137.52 10.91 137.63 10.76 137.77 10.64L141.64 7.37C141.74 7.29 141.87 7.23 142.03 7.19C142.21 7.13 142.4 7.1 142.6 7.1H151.78C153.2 7.1 154.39 7.25 155.35 7.55C156.31 7.85 157.07 8.27 157.63 8.81C158.19 9.35 158.58 10 158.8 10.76C159.04 11.52 159.16 12.35 159.16 13.25V17.09C159.16 18.05 159.02 18.93 158.74 19.73C158.48 20.51 158.02 21.18 157.36 21.74L153.46 24.98C152.96 25.4 152.31 25.75 151.51 26.03C150.73 26.29 149.77 26.44 148.63 26.48V27.92C148.63 28.18 148.59 28.4 148.51 28.58C148.45 28.76 148.35 28.91 148.21 29.03L144.31 32.27C144.23 32.35 144.1 32.42 143.92 32.48C143.76 32.54 143.58 32.57 143.38 32.57ZM147.25 29C147.63 29 147.9 28.92 148.06 28.76C148.24 28.58 148.33 28.3 148.33 27.92V22.94H151.78C154.5 22.94 156.36 22.4 157.36 21.32C158.36 20.24 158.86 18.83 158.86 17.09V13.25C158.86 11.51 158.36 10.1 157.36 9.02C156.36 7.94 154.5 7.4 151.78 7.4H142.6C142.22 7.4 141.94 7.49 141.76 7.67C141.6 7.83 141.52 8.1 141.52 8.48V27.92C141.52 28.3 141.6 28.58 141.76 28.76C141.94 28.92 142.22 29 142.6 29H147.25ZM151.36 20.39H145.18V26.3H144.88V10.1H151.36C152.3 10.1 153.06 10.21 153.64 10.43C154.24 10.63 154.7 10.91 155.02 11.27C155.34 11.63 155.56 12.06 155.68 12.56C155.8 13.06 155.86 13.6 155.86 14.18V16.4C155.86 16.98 155.8 17.52 155.68 18.02C155.56 18.5 155.34 18.92 155.02 19.28C154.7 19.62 154.24 19.89 153.64 20.09C153.06 20.29 152.3 20.39 151.36 20.39ZM145.18 20.09H151.36C152.24 20.09 152.95 20 153.49 19.82C154.05 19.64 154.48 19.39 154.78 19.07C155.08 18.73 155.28 18.34 155.38 17.9C155.5 17.44 155.56 16.94 155.56 16.4V14.18C155.56 13.64 155.5 13.14 155.38 12.68C155.28 12.22 155.08 11.82 154.78 11.48C154.48 11.14 154.05 10.88 153.49 10.7C152.95 10.5 152.24 10.4 151.36 10.4H145.18V20.09ZM148.27 13.01H150.97C151.55 13.01 151.93 13.16 152.11 13.46C152.29 13.76 152.38 14.1 152.38 14.48V16.07C152.38 16.45 152.29 16.79 152.11 17.09C151.93 17.39 151.55 17.54 150.97 17.54H148.27V13.01ZM170.237 33.02C168.297 33.02 166.697 32.81 165.437 32.39C164.197 31.99 163.227 31.45 162.527 30.77C161.827 30.09 161.337 29.31 161.057 28.43C160.797 27.55 160.667 26.64 160.667 25.7V11.75C160.667 11.49 160.697 11.27 160.757 11.09C160.837 10.91 160.947 10.76 161.087 10.64L164.957 7.37C165.057 7.29 165.187 7.23 165.347 7.19C165.527 7.13 165.717 7.1 165.917 7.1H170.627C171.107 7.1 171.457 7.21 171.677 7.43C171.897 7.65 172.007 8 172.007 8.48V22.16C172.007 22.34 172.037 22.51 172.097 22.67C172.157 22.81 172.287 22.92 172.487 23V11.75C172.487 11.49 172.517 11.27 172.577 11.09C172.637 10.91 172.727 10.77 172.847 10.67L172.877 10.64L176.777 7.37C176.877 7.29 177.007 7.23 177.167 7.19C177.327 7.13 177.517 7.1 177.737 7.1H182.297C182.777 7.1 183.127 7.21 183.347 7.43C183.567 7.65 183.677 8 183.677 8.48V23.33C183.677 24.25 183.547 25.1 183.287 25.88C183.027 26.66 182.557 27.33 181.877 27.89L177.977 31.13C177.277 31.73 176.307 32.19 175.067 32.51C173.827 32.85 172.217 33.02 170.237 33.02ZM183.377 23.33V8.48C183.377 8.1 183.287 7.83 183.107 7.67C182.947 7.49 182.677 7.4 182.297 7.4H177.737C177.357 7.4 177.077 7.49 176.897 7.67C176.737 7.83 176.657 8.1 176.657 8.48V22.16C176.657 22.56 176.507 22.9 176.207 23.18C175.907 23.44 175.227 23.57 174.167 23.57C173.127 23.57 172.457 23.44 172.157 23.18C171.857 22.9 171.707 22.56 171.707 22.16V8.48C171.707 8.1 171.617 7.83 171.437 7.67C171.277 7.49 171.007 7.4 170.627 7.4H165.917C165.537 7.4 165.257 7.49 165.077 7.67C164.917 7.83 164.837 8.1 164.837 8.48V23.33C164.837 24.25 164.967 25.09 165.227 25.85C165.507 26.59 165.987 27.23 166.667 27.77C167.367 28.29 168.317 28.7 169.517 29C170.717 29.3 172.247 29.45 174.107 29.45C175.967 29.45 177.497 29.3 178.697 29C179.897 28.7 180.837 28.29 181.517 27.77C182.217 27.23 182.697 26.59 182.957 25.85C183.237 25.09 183.377 24.25 183.377 23.33ZM168.137 10.1H168.437V22.61C168.437 23.73 168.827 24.64 169.607 25.34C170.407 26.02 171.917 26.36 174.137 26.36C176.357 26.36 177.867 26.02 178.667 25.34C179.467 24.64 179.867 23.73 179.867 22.61V10.1H180.167V22.61C180.167 23.81 179.747 24.79 178.907 25.55C178.067 26.29 176.477 26.66 174.137 26.66C171.797 26.66 170.207 26.29 169.367 25.55C168.547 24.79 168.137 23.81 168.137 22.61V10.1ZM194.318 10.34L205.358 22.76V10.1H205.658V26.3H205.358V23.21L194.018 10.49C193.998 10.47 193.968 10.45 193.928 10.43C193.908 10.41 193.888 10.4 193.868 10.4C193.848 10.4 193.828 10.41 193.808 10.43C193.808 10.45 193.808 10.47 193.808 10.49V26.3H193.508V10.43C193.508 10.31 193.548 10.22 193.628 10.16C193.708 10.1 193.788 10.07 193.868 10.07C193.948 10.07 194.018 10.09 194.078 10.13C194.138 10.17 194.218 10.24 194.318 10.34ZM195.938 29C196.318 29 196.588 28.92 196.748 28.76C196.928 28.58 197.018 28.3 197.018 27.92V18.02L202.148 24.23V27.92C202.148 28.3 202.228 28.58 202.388 28.76C202.568 28.92 202.848 29 203.228 29H207.728C208.108 29 208.378 28.92 208.538 28.76C208.718 28.58 208.808 28.3 208.808 27.92V8.48C208.808 8.1 208.718 7.83 208.538 7.67C208.378 7.49 208.108 7.4 207.728 7.4H203.228C202.848 7.4 202.568 7.49 202.388 7.67C202.228 7.83 202.148 8.1 202.148 8.48V14.87L196.328 8.21C196.068 7.91 195.798 7.7 195.518 7.58C195.258 7.46 194.938 7.4 194.558 7.4H191.438C191.058 7.4 190.778 7.49 190.598 7.67C190.438 7.83 190.358 8.1 190.358 8.48V27.92C190.358 28.3 190.438 28.58 190.598 28.76C190.778 28.92 191.058 29 191.438 29H195.938ZM196.898 29.03L192.998 32.27C192.918 32.35 192.788 32.42 192.608 32.48C192.448 32.54 192.268 32.57 192.068 32.57H187.568C187.088 32.57 186.738 32.46 186.518 32.24C186.298 32.02 186.188 31.67 186.188 31.19V11.75C186.188 11.49 186.218 11.27 186.278 11.09C186.358 10.91 186.468 10.76 186.608 10.64L190.478 7.37C190.578 7.29 190.708 7.23 190.868 7.19C191.048 7.13 191.238 7.1 191.438 7.1H194.558C194.998 7.1 195.368 7.17 195.668 7.31C195.968 7.45 196.268 7.68 196.568 8L198.638 10.4L202.268 7.37C202.368 7.29 202.498 7.23 202.658 7.19C202.838 7.13 203.028 7.1 203.228 7.1H207.728C208.208 7.1 208.558 7.21 208.778 7.43C208.998 7.65 209.108 8 209.108 8.48V27.92C209.108 28.18 209.068 28.4 208.988 28.58C208.928 28.76 208.828 28.91 208.688 29.03L204.788 32.27C204.708 32.35 204.578 32.42 204.398 32.48C204.238 32.54 204.058 32.57 203.858 32.57H199.358C198.878 32.57 198.528 32.46 198.308 32.24C198.088 32.02 197.978 31.67 197.978 31.19V27.62L197.318 26.81V27.92C197.318 28.18 197.278 28.4 197.198 28.58C197.138 28.76 197.038 28.91 196.898 29.03ZM219.504 26.3H219.204V10.1H219.504V18.08H226.014L229.464 10.1H229.794L226.344 18.08H227.574C228.794 18.08 229.704 18.31 230.304 18.77C230.904 19.23 231.204 19.98 231.204 21.02V26.3H230.904V21.02C230.904 20.06 230.624 19.38 230.064 18.98C229.504 18.58 228.674 18.38 227.574 18.38H219.504V26.3ZM221.664 29C222.044 29 222.314 28.92 222.474 28.76C222.654 28.58 222.744 28.3 222.744 27.92V21.05H226.704C227.024 21.05 227.264 21.14 227.424 21.32C227.584 21.5 227.664 21.75 227.664 22.07V27.92C227.664 28.3 227.744 28.58 227.904 28.76C228.084 28.92 228.364 29 228.744 29H233.364C233.744 29 234.014 28.92 234.174 28.76C234.354 28.58 234.444 28.3 234.444 27.92V19.46C234.444 18.26 234.104 17.3 233.424 16.58C232.764 15.84 231.874 15.44 230.754 15.38L233.814 8.39C233.954 8.07 233.964 7.83 233.844 7.67C233.724 7.49 233.494 7.4 233.154 7.4H228.534C228.154 7.4 227.844 7.48 227.604 7.64C227.364 7.78 227.174 8.03 227.034 8.39L223.944 15.38H222.744V8.48C222.744 8.1 222.654 7.83 222.474 7.67C222.314 7.49 222.044 7.4 221.664 7.4H217.014C216.634 7.4 216.354 7.49 216.174 7.67C216.014 7.83 215.934 8.1 215.934 8.48V27.92C215.934 28.3 216.014 28.58 216.174 28.76C216.354 28.92 216.634 29 217.014 29H221.664ZM222.624 29.03L218.724 32.27C218.644 32.35 218.514 32.42 218.334 32.48C218.174 32.54 217.994 32.57 217.794 32.57H213.144C212.664 32.57 212.314 32.46 212.094 32.24C211.874 32.02 211.764 31.67 211.764 31.19V11.75C211.764 11.49 211.794 11.27 211.854 11.09C211.934 10.91 212.044 10.76 212.184 10.64L216.054 7.37C216.154 7.29 216.284 7.23 216.444 7.19C216.624 7.13 216.814 7.1 217.014 7.1H221.664C222.144 7.1 222.494 7.21 222.714 7.43C222.934 7.65 223.044 8 223.044 8.48V11.21C223.104 11.13 223.164 11.05 223.224 10.97C223.284 10.87 223.354 10.79 223.434 10.73L227.304 7.46C227.444 7.34 227.614 7.25 227.814 7.19C228.034 7.13 228.274 7.1 228.534 7.1H233.154C233.654 7.1 233.984 7.23 234.144 7.49C234.304 7.73 234.284 8.07 234.084 8.51L231.204 15.11C232.284 15.25 233.144 15.71 233.784 16.49C234.424 17.27 234.744 18.26 234.744 19.46V27.92C234.744 28.18 234.704 28.4 234.624 28.58C234.564 28.76 234.464 28.91 234.324 29.03L230.424 32.27C230.344 32.35 230.214 32.42 230.034 32.48C229.874 32.54 229.694 32.57 229.494 32.57H224.874C224.394 32.57 224.044 32.46 223.824 32.24C223.604 32.02 223.494 31.67 223.494 31.19V25.34C223.494 25.14 223.454 24.98 223.374 24.86C223.294 24.74 223.184 24.67 223.044 24.65V27.92C223.044 28.18 223.004 28.4 222.924 28.58C222.864 28.76 222.764 28.91 222.624 29.03ZM237.975 32.57C237.495 32.57 237.145 32.46 236.925 32.24C236.705 32.02 236.595 31.67 236.595 31.19V27.68C236.595 27.42 236.625 27.2 236.685 27.02C236.765 26.84 236.875 26.69 237.015 26.57L240.015 24.05C238.955 23.73 238.115 23.19 237.495 22.43C236.895 21.65 236.595 20.54 236.595 19.1V15.95C236.595 15.05 236.745 14.25 237.045 13.55C237.345 12.85 237.775 12.26 238.335 11.78L242.235 8.51C242.775 8.07 243.445 7.73 244.245 7.49C245.045 7.23 245.955 7.1 246.975 7.1H255.375C255.855 7.1 256.205 7.21 256.425 7.43C256.645 7.65 256.755 8 256.755 8.48V12.05C256.755 12.31 256.715 12.53 256.635 12.71C256.575 12.89 256.475 13.04 256.335 13.16L253.635 15.41C254.895 15.69 255.905 16.22 256.665 17C257.445 17.76 257.835 18.95 257.835 20.57V23.72C257.835 24.62 257.685 25.42 257.385 26.12C257.085 26.82 256.645 27.41 256.065 27.89L252.195 31.13C251.635 31.59 250.955 31.94 250.155 32.18C249.355 32.44 248.455 32.57 247.455 32.57H237.975ZM251.325 29C253.245 29 254.755 28.55 255.855 27.65C256.975 26.73 257.535 25.42 257.535 23.72V20.57C257.535 18.89 257.105 17.69 256.245 16.97C255.385 16.25 254.255 15.79 252.855 15.59L248.385 14.99C248.125 14.97 247.925 14.87 247.785 14.69C247.645 14.51 247.575 14.29 247.575 14.03C247.575 13.77 247.645 13.56 247.785 13.4C247.925 13.22 248.125 13.13 248.385 13.13H255.375C255.755 13.13 256.025 13.05 256.185 12.89C256.365 12.71 256.455 12.43 256.455 12.05V8.48C256.455 8.1 256.365 7.83 256.185 7.67C256.025 7.49 255.755 7.4 255.375 7.4H246.975C245.035 7.4 243.515 7.86 242.415 8.78C241.315 9.68 240.765 10.98 240.765 12.68V15.83C240.765 17.51 241.185 18.71 242.025 19.43C242.885 20.15 244.015 20.61 245.415 20.81L249.915 21.44C250.175 21.46 250.365 21.55 250.485 21.71C250.625 21.87 250.695 22.12 250.695 22.46C250.695 22.7 250.625 22.91 250.485 23.09C250.365 23.25 250.175 23.33 249.915 23.33H241.845C241.465 23.33 241.185 23.42 241.005 23.6C240.845 23.76 240.765 24.03 240.765 24.41V27.92C240.765 28.3 240.845 28.58 241.005 28.76C241.185 28.92 241.465 29 241.845 29H251.325ZM253.755 10.1V10.4H247.095C246.255 10.4 245.585 10.63 245.085 11.09C244.585 11.55 244.335 12.13 244.335 12.83V15.29C244.335 15.99 244.475 16.48 244.755 16.76C245.035 17.04 245.405 17.22 245.865 17.3L252.195 18.59C252.795 18.71 253.285 18.97 253.665 19.37C254.065 19.77 254.265 20.49 254.265 21.53V23.27C254.265 24.15 253.965 24.88 253.365 25.46C252.765 26.02 251.955 26.3 250.935 26.3H243.465V26H250.935C251.855 26 252.585 25.75 253.125 25.25C253.685 24.73 253.965 24.07 253.965 23.27V21.53C253.965 20.59 253.795 19.95 253.455 19.61C253.135 19.25 252.695 19.01 252.135 18.89L245.805 17.6C245.285 17.5 244.855 17.3 244.515 17C244.195 16.68 244.035 16.11 244.035 15.29V12.83C244.035 12.03 244.315 11.38 244.875 10.88C245.435 10.36 246.175 10.1 247.095 10.1H253.755Z" fill="#A2F9D9"/>
<path d="M16.02 32.57H8.7C6.08 32.57 4.14 31.89 2.88 30.53C1.64 29.17 1.02 27.41 1.02 25.25V16.82C1.02 15.72 1.18 14.77 1.5 13.97C1.82 13.15 2.29 12.47 2.91 11.93L6.81 8.66C7.43 8.14 8.22 7.75 9.18 7.49C10.14 7.23 11.27 7.1 12.57 7.1H19.89C20.37 7.1 20.72 7.21 20.94 7.43C21.16 7.65 21.27 8 21.27 8.48V12.11C21.27 12.37 21.23 12.59 21.15 12.77C21.09 12.95 20.99 13.1 20.85 13.22L16.95 16.46C16.87 16.54 16.74 16.61 16.56 16.67C16.4 16.73 16.22 16.76 16.02 16.76H12.33V21.83C12.33 22.25 12.46 22.55 12.72 22.73C12.98 22.89 13.36 22.97 13.86 22.97H19.89C20.37 22.97 20.72 23.08 20.94 23.3C21.16 23.52 21.27 23.87 21.27 24.35V27.92C21.27 28.18 21.23 28.4 21.15 28.58C21.09 28.76 20.99 28.91 20.85 29.03L16.95 32.27C16.87 32.35 16.74 32.42 16.56 32.48C16.4 32.54 16.22 32.57 16.02 32.57ZM19.89 29C20.27 29 20.54 28.92 20.7 28.76C20.88 28.58 20.97 28.3 20.97 27.92V24.35C20.97 23.97 20.88 23.7 20.7 23.54C20.54 23.36 20.27 23.27 19.89 23.27H13.86C13.24 23.27 12.78 23.16 12.48 22.94C12.18 22.7 12.03 22.33 12.03 21.83V14.69C12.03 14.19 12.18 13.82 12.48 13.58C12.78 13.32 13.24 13.19 13.86 13.19H19.89C20.27 13.19 20.54 13.11 20.7 12.95C20.88 12.77 20.97 12.49 20.97 12.11V8.48C20.97 8.1 20.88 7.83 20.7 7.67C20.54 7.49 20.27 7.4 19.89 7.4H12.57C10.07 7.4 8.21 7.91 6.99 8.93C5.79 9.93 5.19 11.47 5.19 13.55V22.88C5.19 24.96 5.79 26.5 6.99 27.5C8.21 28.5 10.07 29 12.57 29H19.89ZM18.24 26V26.3H13.23C11.29 26.3 10 26 9.36 25.4C8.74 24.8 8.43 23.81 8.43 22.43V14.03C8.43 12.61 8.75 11.6 9.39 11C10.03 10.4 11.31 10.1 13.23 10.1H18.24V10.4H13.23C11.47 10.4 10.28 10.68 9.66 11.24C9.04 11.78 8.73 12.71 8.73 14.03V22.43C8.73 23.73 9.03 24.65 9.63 25.19C10.23 25.73 11.43 26 13.23 26H18.24ZM37.4262 10.4H30.8862V19.07H37.4262C38.6662 19.07 39.4962 18.77 39.9162 18.17C40.3362 17.57 40.5462 16.72 40.5462 15.62V13.52C40.5462 12.6 40.2862 11.85 39.7662 11.27C39.2662 10.69 38.4862 10.4 37.4262 10.4ZM34.1262 12.8H36.3762C36.8962 12.8 37.2462 12.94 37.4262 13.22C37.6062 13.48 37.6962 13.81 37.6962 14.21V15.23C37.6962 15.63 37.6062 15.97 37.4262 16.25C37.2462 16.51 36.8962 16.64 36.3762 16.64H34.1262V12.8ZM30.8862 26.3H30.5862V10.1H37.4262C38.5862 10.1 39.4462 10.43 40.0062 11.09C40.5662 11.73 40.8462 12.54 40.8462 13.52V15.59C40.8462 16.51 40.7262 17.27 40.4862 17.87C40.2462 18.45 39.7662 18.85 39.0462 19.07H39.3762C40.5962 19.07 41.5062 19.35 42.1062 19.91C42.7062 20.45 43.0062 21.24 43.0062 22.28V26.3H42.7062V22.28C42.7062 21.3 42.4362 20.57 41.8962 20.09C41.3562 19.59 40.5162 19.34 39.3762 19.34H30.8862V26.3ZM33.0462 29C33.4262 29 33.6962 28.92 33.8562 28.76C34.0362 28.58 34.1262 28.3 34.1262 27.92V22.04H38.3262C38.7462 22.04 39.0362 22.15 39.1962 22.37C39.3762 22.57 39.4662 22.89 39.4662 23.33V27.92C39.4662 28.3 39.5462 28.58 39.7062 28.76C39.8862 28.92 40.1662 29 40.5462 29H45.1962C45.5762 29 45.8462 28.92 46.0062 28.76C46.1862 28.58 46.2762 28.3 46.2762 27.92V21.56C46.2762 20.3 45.9362 19.29 45.2562 18.53C44.5962 17.77 43.7262 17.33 42.6462 17.21C43.2662 16.95 43.6962 16.53 43.9362 15.95C44.1962 15.35 44.3262 14.63 44.3262 13.79V12.41C44.3262 10.93 43.8962 9.73 43.0362 8.81C42.1962 7.87 40.6562 7.4 38.4162 7.4H28.4262C28.0462 7.4 27.7662 7.49 27.5862 7.67C27.4262 7.83 27.3462 8.1 27.3462 8.48V27.92C27.3462 28.3 27.4262 28.58 27.5862 28.76C27.7662 28.92 28.0462 29 28.4262 29H33.0462ZM34.0062 29.03L30.1062 32.27C30.0262 32.35 29.8962 32.42 29.7162 32.48C29.5562 32.54 29.3762 32.57 29.1762 32.57H24.5562C24.0762 32.57 23.7262 32.46 23.5062 32.24C23.2862 32.02 23.1762 31.67 23.1762 31.19V11.75C23.1762 11.49 23.2062 11.27 23.2662 11.09C23.3462 10.91 23.4562 10.76 23.5962 10.64L27.4662 7.37C27.5662 7.29 27.6962 7.23 27.8562 7.19C28.0362 7.13 28.2262 7.1 28.4262 7.1H38.4162C40.7962 7.1 42.4262 7.6 43.3062 8.6C44.1862 9.58 44.6262 10.85 44.6262 12.41V13.79C44.6262 14.53 44.5362 15.18 44.3562 15.74C44.1762 16.28 43.8862 16.72 43.4862 17.06H43.4562C44.3962 17.32 45.1462 17.84 45.7062 18.62C46.2862 19.4 46.5762 20.38 46.5762 21.56V27.92C46.5762 28.18 46.5362 28.4 46.4562 28.58C46.3962 28.76 46.2962 28.91 46.1562 29.03L42.2562 32.27C42.1762 32.35 42.0462 32.42 41.8662 32.48C41.7062 32.54 41.5262 32.57 41.3262 32.57H36.6762C36.1962 32.57 35.8462 32.46 35.6262 32.24C35.4062 32.02 35.2962 31.67 35.2962 31.19V26.6C35.2962 26.28 35.2362 26.04 35.1162 25.88C34.9962 25.7 34.7762 25.61 34.4562 25.61H34.4262V27.92C34.4262 28.18 34.3862 28.4 34.3062 28.58C34.2462 28.76 34.1462 28.91 34.0062 29.03ZM55.6594 19.91V20.84H67.3594V19.91C67.3594 19.37 67.3094 18.87 67.2094 18.41C67.1294 17.95 67.0194 17.52 66.8794 17.12L64.8094 12.23C64.5894 11.71 64.3594 11.28 64.1194 10.94C63.8794 10.58 63.4794 10.4 62.9194 10.4H59.9794C59.3794 10.4 58.9594 10.58 58.7194 10.94C58.4794 11.28 58.2594 11.7 58.0594 12.2L56.1394 17.12C55.9994 17.52 55.8794 17.95 55.7794 18.41C55.6994 18.87 55.6594 19.37 55.6594 19.91ZM60.4594 13.7C60.5394 13.52 60.6194 13.39 60.6994 13.31C60.7994 13.23 60.9094 13.19 61.0294 13.19H61.7794C61.8994 13.19 61.9994 13.23 62.0794 13.31C62.1794 13.39 62.2694 13.52 62.3494 13.7L63.7594 18.26H59.0494L60.4594 13.7ZM67.3594 26.3V21.14H55.6594V26.3H55.3594V19.91C55.3594 19.35 55.3994 18.84 55.4794 18.38C55.5794 17.9 55.7094 17.44 55.8694 17L57.7894 12.08C58.0094 11.52 58.2594 11.05 58.5394 10.67C58.8194 10.29 59.2994 10.1 59.9794 10.1H62.9194C63.5794 10.1 64.0394 10.29 64.2994 10.67C64.5794 11.05 64.8394 11.53 65.0794 12.11L67.1494 17C67.3094 17.44 67.4294 17.9 67.5094 18.38C67.6094 18.84 67.6594 19.35 67.6594 19.91V26.3H67.3594ZM58.7494 27.92V23.72H64.0594V27.92C64.0594 28.3 64.1494 28.58 64.3294 28.76C64.5294 28.92 64.8294 29 65.2294 29H69.7594C70.1394 29 70.4094 28.92 70.5694 28.76C70.7494 28.58 70.8394 28.3 70.8394 27.92V20C70.8394 19.4 70.7394 18.71 70.5394 17.93C70.3594 17.15 70.0694 16.24 69.6694 15.2L67.0594 8.39C66.9394 8.05 66.7494 7.8 66.4894 7.64C66.2494 7.48 65.9394 7.4 65.5594 7.4H57.4894C57.0894 7.4 56.7594 7.48 56.4994 7.64C56.2594 7.8 56.0794 8.05 55.9594 8.39L53.3494 15.2C52.9494 16.24 52.6494 17.15 52.4494 17.93C52.2694 18.71 52.1794 19.4 52.1794 20V27.92C52.1794 28.3 52.2594 28.58 52.4194 28.76C52.5994 28.92 52.8794 29 53.2594 29H57.6694C58.0494 29 58.3194 28.92 58.4794 28.76C58.6594 28.58 58.7494 28.3 58.7494 27.92ZM54.7294 32.27C54.6494 32.35 54.5194 32.42 54.3394 32.48C54.1794 32.54 53.9994 32.57 53.7994 32.57H49.3894C48.9094 32.57 48.5594 32.46 48.3394 32.24C48.1194 32.02 48.0094 31.67 48.0094 31.19V23.27C48.0094 22.65 48.0994 21.95 48.2794 21.17C48.4794 20.37 48.7894 19.43 49.2094 18.35L51.7894 11.57C51.8494 11.39 51.9194 11.24 51.9994 11.12C52.0994 10.98 52.1994 10.86 52.2994 10.76L52.3294 10.73L56.1694 7.52C56.3294 7.38 56.5194 7.28 56.7394 7.22C56.9594 7.14 57.2094 7.1 57.4894 7.1H65.5594C66.0194 7.1 66.3894 7.2 66.6694 7.4C66.9694 7.58 67.1894 7.87 67.3294 8.27L69.9394 15.08C70.3594 16.16 70.6594 17.1 70.8394 17.9C71.0394 18.68 71.1394 19.38 71.1394 20V27.92C71.1394 28.18 71.0994 28.4 71.0194 28.58C70.9594 28.76 70.8594 28.91 70.7194 29.03L66.8194 32.27C66.7394 32.35 66.6094 32.42 66.4294 32.48C66.2694 32.54 66.0894 32.57 65.8894 32.57H61.3594C60.8594 32.57 60.4894 32.45 60.2494 32.21C60.0094 31.99 59.8894 31.65 59.8894 31.19V27.29H59.0494V27.92C59.0494 28.18 59.0094 28.4 58.9294 28.58C58.8694 28.76 58.7694 28.91 58.6294 29.03L54.7294 32.27ZM88.9317 32.57H74.0517C73.5717 32.57 73.2217 32.46 73.0017 32.24C72.7817 32.02 72.6717 31.67 72.6717 31.19V27.17C72.6717 26.73 72.7317 26.36 72.8517 26.06C72.9917 25.74 73.2017 25.43 73.4817 25.13L80.3817 16.76H74.5917C74.1117 16.76 73.7617 16.65 73.5417 16.43C73.3217 16.21 73.2117 15.86 73.2117 15.38V11.75C73.2117 11.49 73.2417 11.27 73.3017 11.09C73.3817 10.91 73.4917 10.76 73.6317 10.64L77.5017 7.37C77.6017 7.29 77.7317 7.23 77.8917 7.19C78.0717 7.13 78.2617 7.1 78.4617 7.1H92.2617C92.7417 7.1 93.0917 7.21 93.3117 7.43C93.5317 7.65 93.6417 8 93.6417 8.48V12.95C93.6417 13.39 93.5717 13.77 93.4317 14.09C93.3117 14.41 93.1117 14.72 92.8317 15.02L86.2617 22.97H92.8017C93.2817 22.97 93.6317 23.08 93.8517 23.3C94.0717 23.52 94.1817 23.87 94.1817 24.35V27.92C94.1817 28.18 94.1417 28.4 94.0617 28.58C94.0017 28.76 93.9017 28.91 93.7617 29.03L89.8617 32.27C89.7817 32.35 89.6517 32.42 89.4717 32.48C89.3117 32.54 89.1317 32.57 88.9317 32.57ZM92.8017 29C93.1817 29 93.4517 28.92 93.6117 28.76C93.7917 28.58 93.8817 28.3 93.8817 27.92V24.35C93.8817 23.97 93.7917 23.7 93.6117 23.54C93.4517 23.36 93.1817 23.27 92.8017 23.27H85.6317L92.5917 14.84C92.8517 14.56 93.0417 14.28 93.1617 14C93.2817 13.7 93.3417 13.35 93.3417 12.95V8.48C93.3417 8.1 93.2517 7.83 93.0717 7.67C92.9117 7.49 92.6417 7.4 92.2617 7.4H78.4617C78.0817 7.4 77.8017 7.49 77.6217 7.67C77.4617 7.83 77.3817 8.1 77.3817 8.48V12.11C77.3817 12.49 77.4617 12.77 77.6217 12.95C77.8017 13.11 78.0817 13.19 78.4617 13.19H84.8817L77.5917 22.04C77.3317 22.32 77.1417 22.61 77.0217 22.91C76.9017 23.19 76.8417 23.52 76.8417 23.9V27.92C76.8417 28.3 76.9217 28.58 77.0817 28.76C77.2617 28.92 77.5417 29 77.9217 29H92.8017ZM89.6517 12.68L80.8617 23.96C80.7217 24.14 80.6117 24.29 80.5317 24.41C80.4717 24.53 80.4417 24.69 80.4417 24.89V25.31C80.4417 25.59 80.5017 25.78 80.6217 25.88C80.7617 25.96 80.9117 26 81.0717 26H91.1817V26.3H81.0717C80.7517 26.3 80.5117 26.22 80.3517 26.06C80.2117 25.9 80.1417 25.65 80.1417 25.31V24.83C80.1417 24.61 80.1917 24.42 80.2917 24.26C80.3917 24.08 80.5117 23.9 80.6517 23.72L89.4417 12.44C89.5817 12.26 89.6817 12.11 89.7417 11.99C89.8217 11.87 89.8617 11.71 89.8617 11.51V11.09C89.8617 10.81 89.7917 10.63 89.6517 10.55C89.5317 10.45 89.3917 10.4 89.2317 10.4H80.0817V10.1H89.2317C89.5517 10.1 89.7817 10.18 89.9217 10.34C90.0817 10.5 90.1617 10.75 90.1617 11.09V11.57C90.1617 11.79 90.1117 11.99 90.0117 12.17C89.9117 12.33 89.7917 12.5 89.6517 12.68ZM107.112 32.57H102.252C101.752 32.57 101.392 32.46 101.172 32.24C100.972 32.02 100.872 31.67 100.872 31.19V27.44L96.3417 21.38C95.8617 20.74 95.5417 20.18 95.3817 19.7C95.2217 19.22 95.1417 18.49 95.1417 17.51V11.75C95.1417 11.49 95.1717 11.27 95.2317 11.09C95.3117 10.91 95.4217 10.76 95.5617 10.64L99.4317 7.37C99.5317 7.29 99.6617 7.23 99.8217 7.19C100.002 7.13 100.192 7.1 100.392 7.1H105.012C105.492 7.1 105.842 7.21 106.062 7.43C106.282 7.65 106.392 8 106.392 8.48V13.4C106.392 13.58 106.402 13.76 106.422 13.94C106.442 14.12 106.502 14.31 106.602 14.51L106.962 15.02V11.75C106.962 11.49 106.992 11.27 107.052 11.09C107.132 10.91 107.242 10.76 107.382 10.64L111.252 7.37C111.352 7.29 111.482 7.23 111.642 7.19C111.822 7.13 112.012 7.1 112.212 7.1H116.682C117.162 7.1 117.512 7.21 117.732 7.43C117.952 7.65 118.062 8 118.062 8.48V14.24C118.062 15.22 117.982 15.95 117.822 16.43C117.662 16.91 117.342 17.47 116.862 18.11L112.362 24.2V27.92C112.362 28.18 112.322 28.4 112.242 28.58C112.182 28.76 112.082 28.91 111.942 29.03L108.042 32.27C107.962 32.35 107.832 32.42 107.652 32.48C107.492 32.54 107.312 32.57 107.112 32.57ZM110.982 29C111.362 29 111.632 28.92 111.792 28.76C111.972 28.58 112.062 28.3 112.062 27.92V24.11L116.622 17.93C117.062 17.31 117.362 16.77 117.522 16.31C117.682 15.85 117.762 15.16 117.762 14.24V8.48C117.762 8.1 117.672 7.83 117.492 7.67C117.332 7.49 117.062 7.4 116.682 7.4H112.212C111.832 7.4 111.552 7.49 111.372 7.67C111.212 7.83 111.132 8.1 111.132 8.48V13.4C111.132 13.6 111.122 13.81 111.102 14.03C111.082 14.25 111.002 14.46 110.862 14.66L109.482 16.82C109.382 17 109.272 17.13 109.152 17.21C109.052 17.29 108.922 17.33 108.762 17.33H108.462C108.302 17.33 108.162 17.29 108.042 17.21C107.942 17.13 107.842 17 107.742 16.82L106.362 14.66C106.222 14.46 106.142 14.25 106.122 14.03C106.102 13.81 106.092 13.6 106.092 13.4V8.48C106.092 8.1 106.002 7.83 105.822 7.67C105.662 7.49 105.392 7.4 105.012 7.4H100.392C100.012 7.4 99.7317 7.49 99.5517 7.67C99.3917 7.83 99.3117 8.1 99.3117 8.48V14.24C99.3117 15.16 99.3817 15.85 99.5217 16.31C99.6817 16.77 99.9917 17.31 100.452 17.93L105.042 24.08V27.92C105.042 28.3 105.122 28.58 105.282 28.76C105.462 28.92 105.742 29 106.122 29H110.982ZM108.912 21.17H108.702V26.3H108.402V21.17H108.102C107.662 21.17 107.262 21.07 106.902 20.87C106.562 20.67 106.232 20.35 105.912 19.91L103.002 15.86C102.782 15.56 102.652 15.21 102.612 14.81C102.572 14.41 102.552 13.99 102.552 13.55V10.1H102.852V13.55C102.852 13.97 102.872 14.37 102.912 14.75C102.952 15.11 103.072 15.44 103.272 15.74L106.182 19.79C106.442 20.19 106.742 20.47 107.082 20.63C107.422 20.79 107.762 20.87 108.102 20.87H108.912C109.292 20.87 109.632 20.79 109.932 20.63C110.252 20.45 110.562 20.17 110.862 19.79L113.862 15.74C114.062 15.48 114.182 15.16 114.222 14.78C114.262 14.38 114.282 13.97 114.282 13.55V10.1H114.582V13.55C114.582 13.99 114.562 14.41 114.522 14.81C114.502 15.19 114.372 15.54 114.132 15.86L111.132 19.91C110.812 20.35 110.472 20.67 110.112 20.87C109.772 21.07 109.372 21.17 108.912 21.17Z" fill="black"/>
</svg>
