<svg id="wave" fill="#fff" style="transform:rotate(0deg); transition: 0.3s" viewBox="0 0 1440 140" version="1.1" xmlns="http://www.w3.org/2000/svg"><path style="transform:translate(0, 0px); opacity:1" d="M0,28L40,23.3C80,19,160,9,240,21C320,33,400,65,480,81.7C560,98,640,98,720,84C800,70,880,42,960,37.3C1040,33,1120,51,1200,63C1280,75,1360,79,1440,84C1520,89,1600,93,1680,95.7C1760,98,1840,98,1920,91C2000,84,2080,70,2160,53.7C2240,37,2320,19,2400,18.7C2480,19,2560,37,2640,44.3C2720,51,2800,47,2880,51.3C2960,56,3040,70,3120,63C3200,56,3280,28,3360,14C3440,0,3520,0,3600,21C3680,42,3760,84,3840,84C3920,84,4000,42,4080,28C4160,14,4240,28,4320,37.3C4400,47,4480,51,4560,63C4640,75,4720,93,4800,86.3C4880,79,4960,47,5040,30.3C5120,14,5200,14,5280,23.3C5360,33,5440,51,5520,67.7C5600,84,5680,98,5720,105L5760,112L5760,140L5720,140C5680,140,5600,140,5520,140C5440,140,5360,140,5280,140C5200,140,5120,140,5040,140C4960,140,4880,140,4800,140C4720,140,4640,140,4560,140C4480,140,4400,140,4320,140C4240,140,4160,140,4080,140C4000,140,3920,140,3840,140C3760,140,3680,140,3600,140C3520,140,3440,140,3360,140C3280,140,3200,140,3120,140C3040,140,2960,140,2880,140C2800,140,2720,140,2640,140C2560,140,2480,140,2400,140C2320,140,2240,140,2160,140C2080,140,2000,140,1920,140C1840,140,1760,140,1680,140C1600,140,1520,140,1440,140C1360,140,1280,140,1200,140C1120,140,1040,140,960,140C880,140,800,140,720,140C640,140,560,140,480,140C400,140,320,140,240,140C160,140,80,140,40,140L0,140Z"></path></svg>